<svg xmlns="http://www.w3.org/2000/svg" id="svg13" version="1.1" viewBox="0 0 400 225"><defs id="defs1"><style id="style1">.cls-1{fill:#d4efff}.cls-12{fill:#fff}</style></defs><path id="rect13" d="M0 0h400v225H0z" style="fill:none"/><g id="g20" transform="translate(-4.5 -2)"><path id="rect1-7" d="M108 51.5v128h195v-128z" class="cls-1" style="opacity:.1;fill:#000;fill-opacity:1;stroke:none;stroke-opacity:1"/><g id="g19"><path id="rect1" d="M106 49.5h195v109H106z" class="cls-1"/><path id="rect2" d="m243.87 66.65-53.64 45.11-17.56 14.73-22.21-18.67L106 145.16v32.34h195v-62.21l-11.28-9.84z" style="font-variation-settings:normal;opacity:1;vector-effect:none;fill:#3497da;fill-opacity:1;stroke-width:1;stroke-linecap:butt;stroke-linejoin:miter;stroke-miterlimit:4;stroke-dasharray:none;stroke-dashoffset:0;stroke-opacity:1;-inkscape-stroke:none;stop-color:#000;stop-opacity:1"/><path id="rect15-9" d="m108.486 267.577-1.324-1.67H75.684l.002 1.67z" style="font-variation-settings:normal;vector-effect:none;fill:#8e44ad;fill-opacity:1;fill-rule:evenodd;stroke:none;stroke-width:1;stroke-linecap:butt;stroke-linejoin:miter;stroke-miterlimit:4;stroke-dasharray:none;stroke-dashoffset:0;stroke-opacity:1;-inkscape-stroke:none;stop-color:#000" transform="rotate(-51.59)"/><path id="rect15" d="M117.273 149.097h8.602v-1.79h-8.438a19.994 15.183 45 0 1-.164 1.79" style="font-variation-settings:normal;opacity:1;vector-effect:none;fill:#8e44ad;fill-opacity:1;fill-rule:evenodd;stroke:none;stroke-width:1.01888;stroke-linecap:butt;stroke-linejoin:miter;stroke-miterlimit:4;stroke-dasharray:none;stroke-dashoffset:0;stroke-opacity:1;-inkscape-stroke:none;stop-color:#000;stop-opacity:1" transform="matrix(.8049 -.59342 .3555 .93468 0 0)"/><circle id="circle4-3" cx="131.954" cy="75.226" r="17.1" style="font-variation-settings:normal;vector-effect:none;fill:#f5c357;fill-opacity:1;stroke-width:1;stroke-linecap:butt;stroke-linejoin:miter;stroke-miterlimit:4;stroke-dasharray:none;stroke-dashoffset:0;stroke-opacity:1;-inkscape-stroke:none;stop-color:#000"/><path id="path10" d="M161.088 102.544h-21.83a8.62 8.62 0 0 1-3.81-16.5v-.76a10.27 10.27 0 0 1 19.74-3.84 5 5 0 0 1 3.33-1.23 5.15 5.15 0 0 1 5.14 5.14 5.06 5.06 0 0 1-.82 2.77 7.28 7.28 0 0 1 6 7.11 7.38 7.38 0 0 1-7.75 7.31" class="cls-12"/><g id="g14" style="stroke-width:1.61432" transform="matrix(.61945 0 0 .61945 81.312 -65.755)"><path id="rect14-2-0" d="M133.305 191.547a17.01 17.01 0 0 0-17.05 17.049 17.01 17.01 0 0 0 17.05 17.047h76.254a17.01 17.01 0 0 0 17.048-17.047 17.01 17.01 0 0 0-17.048-17.05zm0 3h76.254a14.02 14.02 0 0 1 14.048 14.049 14.017 14.017 0 0 1-14.048 14.047h-76.254a14.017 14.017 0 0 1-14.05-14.047 14.02 14.02 0 0 1 14.05-14.05" style="font-variation-settings:normal;fill:#8e44ad;fill-opacity:1;fill-rule:evenodd;stroke:none;stroke-width:5.27769;stroke-linecap:butt;stroke-linejoin:miter;stroke-miterlimit:4;stroke-dasharray:none;stroke-dashoffset:0;stroke-opacity:1"/><rect id="rect14-2" width="104.351" height="28.096" x="119.256" y="194.547" ry="14.048" style="font-variation-settings:normal;opacity:1;vector-effect:none;fill:#f5edf8;fill-opacity:1;fill-rule:evenodd;stroke:none;stroke-width:1.61432;stroke-linecap:butt;stroke-linejoin:miter;stroke-miterlimit:4;stroke-dasharray:none;stroke-dashoffset:0;stroke-opacity:1;-inkscape-stroke:none;stop-color:#000;stop-opacity:1"/></g><g id="g14-7" style="stroke-width:1.61432" transform="matrix(.61945 0 0 .61945 116.461 -23.798)"><path id="rect14-2-0-9" d="M133.305 191.547a17.01 17.01 0 0 0-17.05 17.049 17.01 17.01 0 0 0 17.05 17.047h76.254a17.01 17.01 0 0 0 17.048-17.047 17.01 17.01 0 0 0-17.048-17.05zm0 3h76.254a14.02 14.02 0 0 1 14.048 14.049 14.017 14.017 0 0 1-14.048 14.047h-76.254a14.017 14.017 0 0 1-14.05-14.047 14.02 14.02 0 0 1 14.05-14.05" style="font-variation-settings:normal;fill:#8e44ad;fill-opacity:1;fill-rule:evenodd;stroke:none;stroke-width:5.27769;stroke-linecap:butt;stroke-linejoin:miter;stroke-miterlimit:4;stroke-dasharray:none;stroke-dashoffset:0;stroke-opacity:1"/><rect id="rect14-2-2" width="104.351" height="28.096" x="119.256" y="194.547" ry="14.048" style="font-variation-settings:normal;opacity:1;vector-effect:none;fill:#f5edf8;fill-opacity:1;fill-rule:evenodd;stroke:none;stroke-width:1.61432;stroke-linecap:butt;stroke-linejoin:miter;stroke-miterlimit:4;stroke-dasharray:none;stroke-dashoffset:0;stroke-opacity:1;-inkscape-stroke:none;stop-color:#000;stop-opacity:1"/></g><g id="g18" transform="translate(15.94 -15.2)"><path id="rect15-9-9" d="m153.429 159.778.521-2.066-19.134-24.995-1.324 1.016z" style="font-variation-settings:normal;vector-effect:none;fill:#8e44ad;fill-opacity:1;fill-rule:evenodd;stroke:none;stroke-width:1;stroke-linecap:butt;stroke-linejoin:miter;stroke-miterlimit:4;stroke-dasharray:none;stroke-dashoffset:0;stroke-opacity:1;-inkscape-stroke:none;stop-color:#000"/><g id="g14-2" style="stroke-width:1.61432" transform="matrix(.61945 0 0 .61945 80.568 29.065)"><path id="rect14-2-0-3" d="M133.305 191.547a17.01 17.01 0 0 0-17.05 17.049 17.01 17.01 0 0 0 17.05 17.047h76.254a17.01 17.01 0 0 0 17.048-17.047 17.01 17.01 0 0 0-17.048-17.05zm0 3h76.254a14.02 14.02 0 0 1 14.048 14.049 14.017 14.017 0 0 1-14.048 14.047h-76.254a14.017 14.017 0 0 1-14.05-14.047 14.02 14.02 0 0 1 14.05-14.05" style="font-variation-settings:normal;fill:#8e44ad;fill-opacity:1;fill-rule:evenodd;stroke:none;stroke-width:5.27769;stroke-linecap:butt;stroke-linejoin:miter;stroke-miterlimit:4;stroke-dasharray:none;stroke-dashoffset:0;stroke-opacity:1"/><rect id="rect14-2-7" width="104.351" height="28.096" x="119.256" y="194.547" ry="14.048" style="font-variation-settings:normal;opacity:1;vector-effect:none;fill:#f5edf8;fill-opacity:1;fill-rule:evenodd;stroke:none;stroke-width:1.61432;stroke-linecap:butt;stroke-linejoin:miter;stroke-miterlimit:4;stroke-dasharray:none;stroke-dashoffset:0;stroke-opacity:1;-inkscape-stroke:none;stop-color:#000;stop-opacity:1"/></g></g><path id="path10-6-2" d="M287.6 55.572a10.27 10.27 0 0 0-11.032 9.442 5.2 5.2 0 0 0-1.611-.295 5 5 0 0 0-3.33 1.23 10.27 10.27 0 0 0-19.74 3.84v.76a8.62 8.62 0 0 0 3.81 16.5h21.83a7.38 7.38 0 0 0 6.961-4.113H301V60.834a5.2 5.2 0 0 0-1.43-.229 5 5 0 0 0-3.33 1.23 10.27 10.27 0 0 0-8.64-6.263" class="cls-12" style="fill:#fff"/></g></g></svg>